<?xml version="1.0" encoding="UTF-8"?>
<svg id="a" xmlns="http://www.w3.org/2000/svg" viewBox="0 0 24 24">
    <defs>
        <style>.c{fill:#fff;}.d{fill:#21a3dd;}.e{fill:#003350;}</style>
    </defs>
    <rect class="c" width="24" height="24" rx="4" ry="4"/>
    <g>
        <path class="d"
              d="m11.624,16.802c1.688-.161,3.742-1.093,3.959-2.712.032-.239-.165-.468-.286-.681-.315-.556-1.284-1.496-2.278-1.337-.478.077-1.079.774-1.893.812-.326.015-.98.023-1.304-.013-.828-.092-1.381-.715-1.886-.799-.99-.165-1.961.781-2.275,1.337-.121.214-.322.442-.29.681.217,1.621,2.274,2.524,3.959,2.712.57.064,1.723.055,2.294,0Z"/>
        <path class="d"
              d="m10.471,5.065c2.064,0,2.546,1.464,2.546,3.27s-1.33,3.27-2.546,3.27-2.546-1.464-2.546-3.27.481-3.27,2.546-3.27Z"/>
        <path id="b" class="e"
              d="m21.695,21.67c-.539.536-1.242.798-1.947.798s-1.408-.262-1.948-.798l-3.288-3.237c-1.219.632-2.602.977-4.071.977-4.941,0-8.942-3.997-8.942-8.945S5.501,1.532,10.442,1.532s8.942,3.997,8.942,8.932c0,1.468-.351,2.854-.983,4.08l3.295,3.231c1.073,1.079,1.073,2.815,0,3.895Zm-11.253-3.895c4.039,0,7.311-3.262,7.311-7.311s-3.272-7.304-7.311-7.304-7.304,3.269-7.304,7.304,3.266,7.311,7.304,7.311Z"/>
    </g>
</svg>