<?xml version="1.0" encoding="UTF-8"?><svg id="a" xmlns="http://www.w3.org/2000/svg" viewBox="0 0 600 500"><defs><style>.c{fill:#fff;}.d{fill:#21a3dd;}.e{fill:#003350;}.f{fill:#d9dada;}</style></defs><rect class="c" width="600" height="500" rx="12" ry="12"/><g><path class="f" d="m183.32,303.523c-.937-1.481-1.18-3.298-.664-4.974,1.28-4.157,2.794-8.032,4.512-11.586l-5.156-10.312c-13.648-2.978-31.443-13.367-31.443-13.367-2.456.651-4.922,1.404-7.357,2.244-2.438-.839-4.908-1.593-7.371-2.244-6.812,4.436-18.193,12.235-31.836,13.631l-10.931,21.862-11.063-22.127c-13.648-2.978-31.443-13.367-31.443-13.367-16.282,4.316-32.983,13.047-38.16,22.419-2.053,3.565-3.664,7.55-4.857,11.425,14.67,23.181,38.491,40.103,66.408,45.49,6.204.541,12.672.971,19.24.971,6.634,0,13.047-.43,19.24-.971,10.992-2.12,21.353-6.034,30.772-11.407,9.411,5.373,19.76,9.287,30.748,11.407,6.204.541,12.672.971,19.24.971,6.634,0,13.047-.43,19.24-.971,2.137-.412,4.247-.9,6.335-1.445-13.966-10.077-26.07-22.823-35.454-37.651Z"/><g><g><path class="f" d="m58.073,233.195c4.379,17.909,18.621,30.09,34.974,30.09s30.533-12.18,35.015-29.997c3.019-2.514,5.987-6.636,7.955-12.675,1.608-5.235,1.608-9.965-.206-13.489-.649-1.505-1.556-2.617-2.72-3.617.402-8.553.361-12.18-.402-18.322-2.216-18.013-15.395-31.79-38.889-31.594-11.974.103-10.161,6.646-19.177,6.842-16.044.402-19.867,15.9-21.228,24.752-.907,6.142-.752,9.769-.401,18.322-1.062,1-2.01,2.112-2.721,3.617-1.71,3.524-1.762,8.357-.144,13.489,1.958,6.039,4.926,10.16,7.945,12.582Z"/><path class="f" d="m158.073,233.195c4.379,17.909,18.621,30.09,34.974,30.09s30.533-12.18,35.015-29.997c3.019-2.514,5.987-6.636,7.955-12.675,1.608-5.235,1.608-9.965-.206-13.489-.649-1.505-1.556-2.617-2.72-3.617.402-8.553.361-12.18-.402-18.322-2.216-18.013-15.395-31.79-38.889-31.594-11.974.103-10.161,6.646-19.177,6.842-16.044.402-19.867,15.9-21.228,24.752-.907,6.142-.752,9.769-.401,18.322-1.062,1-2.01,2.112-2.721,3.617-1.71,3.524-1.762,8.357-.144,13.489,1.958,6.039,4.926,10.16,7.945,12.582Z"/></g><g><path class="f" d="m367.073,233.195c4.379,17.909,18.621,30.09,34.974,30.09s30.533-12.18,35.015-29.997c3.019-2.514,5.987-6.636,7.955-12.675,1.608-5.235,1.608-9.965-.206-13.489-.649-1.505-1.556-2.617-2.72-3.617.402-8.553.361-12.18-.402-18.322-2.216-18.013-15.395-31.79-38.889-31.594-11.974.103-10.161,6.646-19.177,6.842-16.044.402-19.867,15.9-21.228,24.752-.907,6.142-.752,9.769-.401,18.322-1.062,1-2.01,2.112-2.721,3.617-1.71,3.524-1.762,8.357-.144,13.489,1.958,6.039,4.926,10.16,7.945,12.582Z"/><path class="f" d="m467.073,233.195c4.379,17.909,18.621,30.09,34.974,30.09s30.533-12.18,35.015-29.997c3.019-2.514,5.987-6.636,7.955-12.675,1.608-5.235,1.608-9.965-.206-13.489-.649-1.505-1.556-2.617-2.72-3.617.402-8.553.361-12.18-.402-18.322-2.216-18.013-15.395-31.79-38.889-31.594-11.974.103-10.161,6.646-19.177,6.842-16.044.402-19.867,15.9-21.228,24.752-.907,6.142-.752,9.769-.401,18.322-1.062,1-2.01,2.112-2.721,3.617-1.71,3.524-1.762,8.357-.144,13.489,1.958,6.039,4.926,10.16,7.945,12.582Z"/></g></g><path class="f" d="m583.046,285.704c-5.221-9.372-21.878-18.103-38.204-22.419-6.812,4.436-18.193,12.235-31.836,13.631l-10.931,21.862-11.063-22.127c-13.648-2.978-31.443-13.367-31.443-13.367-2.456.651-4.922,1.404-7.357,2.244-2.438-.839-4.908-1.593-7.371-2.244-6.812,4.436-18.193,12.235-31.836,13.631l-4.866,9.732c1.739,3.587,3.285,7.574,4.609,11.916.508,1.667.267,3.474-.663,4.948-9.347,14.836-21.441,27.588-35.42,37.671,2.074.541,4.17,1.025,6.294,1.435,6.204.541,12.672.971,19.24.971,6.634,0,13.047-.43,19.24-.971,10.992-2.12,21.353-6.034,30.772-11.407,9.411,5.373,19.76,9.287,30.748,11.407,6.204.541,12.672.971,19.24.971,6.634,0,13.047-.43,19.24-.971,27.927-5.387,51.804-22.309,66.408-45.49-1.182-3.875-2.749-7.859-4.802-11.425Z"/><path id="b" class="e" d="m537.868,462.589c-11.547,11.477-26.58,17.09-41.682,17.09s-30.149-5.613-41.696-17.09l-70.39-69.298c-26.104,13.535-55.707,20.911-87.144,20.911-105.788,0-191.434-85.562-191.434-191.504S191.167,31.474,296.955,31.474s191.434,85.562,191.434,191.224c0,31.437-7.516,61.096-21.051,87.34l70.53,69.172c22.969,23.095,22.969,60.27,0,83.379Zm-240.913-83.379c86.458,0,156.512-69.844,156.512-156.512s-70.054-156.372-156.512-156.372-156.372,69.984-156.372,156.372,69.914,156.512,156.372,156.512Z"/><path class="d" d="m253.028,208.718c5.589,22.857,23.765,38.402,44.636,38.402s38.968-15.545,44.689-38.284c3.853-3.209,7.641-8.47,10.153-16.176,2.052-6.681,2.052-12.717-.263-17.215-.829-1.92-1.986-3.34-3.472-4.616.513-10.916.46-15.545-.513-23.383-2.828-22.989-19.648-40.572-49.633-40.322-15.282.132-12.968,8.483-24.475,8.733-20.477.513-25.356,20.293-27.092,31.59-1.157,7.838-.96,12.468-.512,23.383-1.355,1.276-2.565,2.696-3.472,4.616-2.183,4.498-2.249,10.666-.184,17.215,2.499,7.707,6.287,12.967,10.14,16.058Z"/><path class="d" d="m400.881,285.733c-6.664-11.961-27.923-23.104-48.759-28.613-8.679,5.651-23.166,15.58-40.535,17.389l-13.887,27.774-14.025-28.049c-17.45-3.725-40.384-17.113-40.384-17.113-20.78,5.508-42.095,16.652-48.702,28.613-2.62,4.55-4.677,9.636-6.199,14.581,18.723,29.585,49.125,51.182,84.754,58.057,7.918.69,16.173,1.24,24.555,1.24,8.467,0,16.652-.549,24.555-1.24,35.643-6.875,66.115-28.472,84.754-58.057-1.508-4.945-3.508-10.031-6.129-14.581Z"/></g></svg>